{"title":"Devil's Playground (2010) dvd rip Uncut","uid":8659074,"size":2251266994,"categoryP":"video","categoryS":"movies","magnet":"?xt=urn:btih:1e1719c163eabff6c38481c3d2b11251c30cdd82&amp;dn=Devil%27s+Playground+%282010%29+dvd+rip+Uncut&amp;tr=udp%3A%2F%2Ftracker.openbittorrent.com%3A80&amp;tr=udp%3A%2F%2Fopen.demonii.com%3A1337&amp;tr=udp%3A%2F%2Ftracker.coppersurfer.tk%3A6969&amp;tr=udp%3A%2F%2Fexodus.desync.com%3A6969","seeders":2,"leechers":3,"uploader":"jmanwf","files":-1,"time":1373279554,"description":"Format                                   : Matroska\nFormat version                           : Version 2\nFile size                                : 2.09 GiB\nDuration                                 : 1h 32mn\nOverall bit rate                         : 3 223 Kbps\nMovie name                               : DEVILS PLAYGROUND.Title0.BlurayRip\nEncoded date                             : UTC 2013-07-07 02:04:15\nWriting application                      : DVDFab\nWriting library                          : libebml v0.7.8 + libmatroska v0.8.1\n\nVideo\nID                                       : 1\nFormat                                   : AVC\nFormat/Info                              : Advanced Video Codec\nFormat profile                           : &lt;a class=&quot;__cf_email__&quot; href=&quot;/cdn-cgi/l/email-protection&quot; data-cfemail=&quot;3e765759567e720a100f&quot;&gt;[email&amp;#160;protected]&lt;/a&gt;&lt;script cf-hash='f9e31' type=&quot;text/javascript&quot;&gt;\n/* &lt;![CDATA[ */!function(){try{var t=&quot;currentScript&quot;in document?document.currentScript:function(){for(var t=document.getElementsByTagName(&quot;script&quot;),e=t.length;e--;)if(t[e].getAttribute(&quot;cf-hash&quot;))return t[e]}();if(t&amp;&amp;t.previousSibling){var e,r,n,i,c=t.previousSibling,a=c.getAttribute(&quot;data-cfemail&quot;);if(a){for(e=&quot;&quot;,r=parseInt(a.substr(0,2),16),n=2;a.length-n;n+=2)i=parseInt(a.substr(n,2),16)^r,e+=String.fromCharCode(i);e=document.createTextNode(e),c.parentNode.replaceChild(e,c)}}}catch(u){}}();/* ]]&gt; */&lt;/script&gt;\nFormat settings, CABAC                   : Yes\nFormat settings, ReFrames                : 2 frames\nCodec ID                                 : V_MPEG4/ISO/AVC\nDuration                                 : 1h 32mn\nBit rate                                 : 2 711 Kbps\nWidth                                    : 1 920 pixels\nHeight                                   : 800 pixels\nDisplay aspect ratio                     : 2.40:1\nFrame rate mode                          : Constant\nFrame rate                               : 25.000 fps\nColor space                              : YUV\nChroma subsampling                       : 4:2:0\nBit depth                                : 8 bits\nScan type                                : Progressive\nBits/(Pixel*Frame)                       : 0.071\nStream size                              : 1.76 GiB (84%)\nWriting library                          : x264 core\nDefault                                  : Yes\nForced                                   : No\nColor primaries                          : BT.709\nTransfer characteristics                 : BT.709\nMatrix coefficients                      : BT.709\n\nAudio\nID                                       : 2\nFormat                                   : AC-3\nFormat/Info                              : Audio Coding 3\nMode extension                           : CM (complete main)\nFormat settings, Endianness              : Big\nCodec ID                                 : A_AC3\nDuration                                 : 1h 32mn\nBit rate mode                            : Constant\nBit rate                                 : 448 Kbps\nChannel(s)                               : 6 channels\nChannel positions                        : Front: L C R, Side: L R, LFE\nSampling rate                            : 48.0 KHz\nBit depth                                : 16 bits\nCompression mode                         : Lossy\nStream size                              : 298 MiB (14%)\nLanguage                                 : English\nDefault                                  : Yes\nForced                                   : No\n\n\n\nStoryline\n\nAs the world succumbs to a zombie apocalypse, Cole a hardened mercenary, is chasing the one person who can provide a cure. In his way aren't only the flesh eating super athletic cannibals as humanities greatest danger, are people themselves! ","torrent":{"xt":"urn:btih:1e1719c163eabff6c38481c3d2b11251c30cdd82","amp;dn":"Devil%27s+Playground+%282010%29+dvd+rip+Uncut","amp;tr":["udp%3A%2F%2Ftracker.openbittorrent.com%3A80","udp%3A%2F%2Fopen.demonii.com%3A1337","udp%3A%2F%2Ftracker.coppersurfer.tk%3A6969","udp%3A%2F%2Fexodus.desync.com%3A6969"],"infoHash":"1e1719c163eabff6c38481c3d2b11251c30cdd82","infoHashBuffer":{"type":"Buffer","data":[30,23,25,193,99,234,191,246,195,132,129,195,210,177,18,81,195,12,221,130]},"announce":[],"urlList":[]}}